<svg width="32" height="32" viewBox="0 0 32 32" fill="none" xmlns="http://www.w3.org/2000/svg">
<path d="M16 3C13.4288 3 10.9154 3.76244 8.77759 5.1909C6.63975 6.61935 4.97351 8.64968 3.98957 11.0251C3.00563 13.4006 2.74819 16.0144 3.2498 18.5362C3.75141 21.0579 4.98953 23.3743 6.80762 25.1924C8.6257 27.0105 10.9421 28.2486 13.4638 28.7502C15.9856 29.2518 18.5995 28.9944 20.9749 28.0104C23.3503 27.0265 25.3807 25.3603 26.8091 23.2224C28.2376 21.0846 29 18.5712 29 16C28.996 12.5534 27.6251 9.24912 25.188 6.81201C22.7509 4.3749 19.4466 3.00398 16 3Z" fill="#2BB673"/>
<path d="M15.8353 11.3753C15.8855 11.254 15.9592 11.1437 16.0521 11.0509C16.1449 10.958 16.2552 10.8844 16.3765 10.8341C16.4978 10.7838 16.6278 10.7579 16.7591 10.7579C16.8904 10.7579 17.0205 10.7838 17.1418 10.8341C17.2631 10.8844 17.3733 10.958 17.4662 11.0509L21.7071 15.2938C21.8946 15.4818 21.9999 15.7365 21.9999 16.0021C21.9999 16.2676 21.8946 16.5223 21.7071 16.7103L17.4662 20.9513C17.2786 21.1385 17.0244 21.2435 16.7593 21.2434C16.4943 21.2433 16.2402 21.1379 16.0529 20.9505C15.8655 20.7632 15.7601 20.5091 15.76 20.244C15.7598 19.979 15.8649 19.7248 16.0521 19.5372L18.5873 17.0021H11.0013C10.7361 17.0021 10.4817 16.8967 10.2942 16.7092C10.1067 16.5217 10.0013 16.2673 10.0013 16.0021C10.0013 15.7369 10.1067 15.4825 10.2942 15.295C10.4817 15.1074 10.7361 15.0021 11.0013 15.0021H18.5879L16.0521 12.465C15.9592 12.3721 15.8855 12.2619 15.8353 12.1406C15.785 12.0193 15.7591 11.8893 15.7591 11.7579C15.7591 11.6266 15.785 11.4966 15.8353 11.3753Z" fill="white"/>
</svg>
