<svg width="32" height="32" viewBox="0 0 32 32" fill="none" xmlns="http://www.w3.org/2000/svg">
<path d="M16 3C13.4288 3 10.9154 3.76244 8.77759 5.1909C6.63975 6.61935 4.97351 8.64968 3.98957 11.0251C3.00563 13.4006 2.74819 16.0144 3.2498 18.5362C3.75141 21.0579 4.98953 23.3743 6.80762 25.1924C8.6257 27.0105 10.9421 28.2486 13.4638 28.7502C15.9856 29.2518 18.5995 28.9944 20.9749 28.0104C23.3503 27.0265 25.3807 25.3603 26.8091 23.2224C28.2376 21.0846 29 18.5712 29 16C28.996 12.5534 27.6251 9.24912 25.188 6.81201C22.7509 4.3749 19.4466 3.00398 16 3Z" fill="#2BB673"/>
<path d="M16.166 20.6262C16.1158 20.7475 16.0421 20.8577 15.9492 20.9506C15.8564 21.0434 15.7461 21.1171 15.6248 21.1674C15.5035 21.2177 15.3735 21.2435 15.2422 21.2435C15.1108 21.2435 14.9808 21.2176 14.8595 21.1674C14.7382 21.1171 14.628 21.0434 14.5351 20.9506L10.2942 16.7076C10.1067 16.5196 10.0014 16.2649 10.0014 15.9994C10.0014 15.7338 10.1067 15.4791 10.2942 15.2911L14.5351 11.0502C14.7227 10.863 14.9769 10.7579 15.2419 10.7581C15.507 10.7582 15.7611 10.8635 15.9484 11.0509C16.1358 11.2383 16.2412 11.4924 16.2413 11.7574C16.2414 12.0224 16.1364 12.2766 15.9492 12.4642L13.414 14.9994H21C21.2652 14.9994 21.5196 15.1047 21.7071 15.2923C21.8946 15.4798 22 15.7342 22 15.9994C22 16.2646 21.8946 16.519 21.7071 16.7065C21.5196 16.894 21.2652 16.9994 21 16.9994H13.4134L15.9492 19.5365C16.0421 19.6293 16.1158 19.7395 16.166 19.8609C16.2163 19.9822 16.2422 20.1122 16.2422 20.2435C16.2422 20.3748 16.2163 20.5049 16.166 20.6262Z" fill="white"/>
</svg>
