<svg width="1920" height="1532" viewBox="0 0 1920 1532" fill="none" xmlns="http://www.w3.org/2000/svg">
<path fill-rule="evenodd" clip-rule="evenodd" d="M356.573 93.1512C538.096 112.095 702.477 176.035 845.114 289.816C1011.08 422.207 1182.07 568.381 1215.12 778.006C1252.7 1016.38 1213.2 1294.12 1027.84 1448.79C848.878 1598.11 589.59 1502.08 356.573 1494.38C136.825 1487.12 -119.125 1564.03 -271.71 1405.84C-423.551 1248.42 -339.009 996.597 -334.423 778.006C-330 567.19 -395.728 324.448 -245.908 175.959C-96.2829 27.6638 146.974 71.2779 356.573 93.1512Z" fill="#FFCC00"/>
<path d="M1909.25 6.71588C1909.25 6.71588 1501.03 -70.4588 1237.79 332.508C1116.13 518.751 1096.16 636.493 1116.64 823.169C1147.36 1103.15 1197.13 1168.23 1420 1074.04C1539.58 1023.5 1666.42 964.542 1666.42 964.542C1736.96 930.259 1942.15 862.015 1977.73 865.666C2013.31 869.316 1981.51 3.02639 1909.25 6.71588Z" fill="#4C40F7"/>
</svg>
