<svg width="1920" height="1464" viewBox="0 0 1920 1464" fill="none" xmlns="http://www.w3.org/2000/svg">
<path d="M-52.11 463.604C-52.11 463.604 30.39 431.113 127.89 522.604C193.29 583.97 193.89 626.704 217.151 730.752C245.651 858.24 332.469 1047.77 548.89 956.604C664.774 907.79 654.99 1040.26 585.89 1171.6C542.096 1254.84 452.031 1345.97 428.89 1363.6C270.107 1484.59 35.2231 1471.88 -53.11 1448.6C-141.104 1425.41 -73.103 468.104 -52.11 463.604Z" fill="#4C40F7"/>
<path fill-rule="evenodd" clip-rule="evenodd" d="M1861.31 2.53099C1999.62 -10.3979 2149.61 25.3555 2241.57 129.427C2330.16 229.693 2310.6 375.723 2309.25 509.483C2307.92 641.146 2324.16 785.97 2233.96 881.932C2142.15 979.596 1993.58 1007.95 1861.31 986.006C1745.26 966.753 1674.76 862.086 1594.76 775.886C1519.53 694.823 1428.29 619.663 1419.06 509.483C1409.24 392.191 1468.7 283.152 1546.09 194.436C1630.14 98.0858 1733.96 14.4342 1861.31 2.53099Z" fill="#2BB673"/>
</svg>
