<svg width="48" height="47" viewBox="0 0 48 47" fill="none" xmlns="http://www.w3.org/2000/svg">
<path d="M39.3093 5.81567C39.8284 5.81567 40.3263 5.61143 40.6933 5.24787C41.0604 4.88431 41.2666 4.39122 41.2666 3.87707C41.2666 3.36293 41.0604 2.86984 40.6933 2.50628C40.3263 2.14272 39.8284 1.93848 39.3093 1.93848H7.99355C7.47446 1.93848 6.97663 2.14272 6.60958 2.50628C6.24252 2.86984 6.03632 3.36293 6.03632 3.87707C6.03632 4.39122 6.24252 4.88431 6.60958 5.24787C6.97663 5.61143 7.47446 5.81567 7.99355 5.81567H10.0467C10.3325 9.37493 11.5009 16.9626 16.2981 21.3244C11.2387 26.1923 10.2091 36.3175 10.0036 40.7104H7.99355C7.47446 40.7104 6.97663 40.9146 6.60958 41.2782C6.24252 41.6418 6.03632 42.1349 6.03632 42.649C6.03632 43.1632 6.24252 43.6562 6.60958 44.0198C6.97663 44.3834 7.47446 44.5876 7.99355 44.5876H39.3093C39.8284 44.5876 40.3263 44.3834 40.6933 44.0198C41.0604 43.6562 41.2666 43.1632 41.2666 42.649C41.2666 42.1349 41.0604 41.6418 40.6933 41.2782C40.3263 40.9146 39.8284 40.7104 39.3093 40.7104H37.2993C37.0937 36.3214 36.0642 26.1961 31.0048 21.3244C35.802 16.9587 36.9704 9.37106 37.2562 5.81567H39.3093ZM26.7439 19.6301C26.4329 19.8011 26.1749 20.0529 25.9976 20.3582C25.8202 20.6636 25.7302 21.0111 25.7373 21.3633C25.7443 21.7155 25.8481 22.0592 26.0376 22.3573C26.227 22.6555 26.4949 22.8969 26.8124 23.0556C31.5822 25.4362 33.0755 35.2901 33.3789 40.7104H13.924C14.2195 35.2823 15.7207 25.4362 20.4905 23.0556C20.808 22.8969 21.0759 22.6555 21.2653 22.3573C21.4548 22.0592 21.5586 21.7155 21.5656 21.3633C21.5726 21.0111 21.4827 20.6636 21.3053 20.3582C21.128 20.0529 20.87 19.8011 20.559 19.6301C15.5896 16.8986 14.3096 9.39044 13.9788 5.81567H33.3241C32.9933 9.39044 31.7133 16.8986 26.7439 19.6301ZM23.6514 25.2016C23.6514 25.2016 29.5232 29.8543 29.5232 32.1806V38.7718H17.7797V32.1806C17.7797 29.8543 23.6514 25.2016 23.6514 25.2016Z" fill="#FF5E00"/>
</svg>
