<svg width="122" height="108" viewBox="0 0 122 108" fill="none" xmlns="http://www.w3.org/2000/svg">
<g filter="url(#filter0_f_0_1)">
<path d="M4.21063 29C4.21063 15.1929 15.4035 4 29.2106 4H86.8516C100.659 4 111.852 15.1929 111.852 29V79C111.852 92.8071 100.659 104 86.8516 104H4.21063V29Z" fill="black" fill-opacity="0.5"/>
</g>
<path d="M4.21063 29C4.21063 15.1929 15.4035 4 29.2106 4H96.5392C110.346 4 121.539 15.1929 121.539 29V79C121.539 92.8071 110.346 104 96.5393 104H4.21063V29Z" fill="#FF6800"/>
<g clip-path="url(#clip0_0_1)">
<path d="M79.9688 32H45.0312C42.805 32 41 33.805 41 36.0312V70.9688C41 73.195 42.805 75 45.0312 75H79.9688C82.195 75 84 73.195 84 70.9688V36.0312C84 33.805 82.195 32 79.9688 32ZM78.3448 34.9395C79.226 34.9395 79.9405 35.654 79.9405 36.5352C79.9405 37.4163 79.226 38.1309 78.3448 38.1309C77.4637 38.1309 76.7491 37.4163 76.7491 36.5352C76.7491 35.654 77.4637 34.9395 78.3448 34.9395ZM72.4239 34.9395C73.3051 34.9395 74.0196 35.654 74.0196 36.5352C74.0196 37.4163 73.3051 38.1309 72.4239 38.1309C71.5428 38.1309 70.8282 37.4163 70.8282 36.5352C70.8282 35.654 71.5428 34.9395 72.4239 34.9395ZM66.503 34.9395C67.3842 34.9395 68.0987 35.654 68.0987 36.5352C68.0987 37.4163 67.3842 38.1309 66.503 38.1309C65.6219 38.1309 64.9073 37.4163 64.9073 36.5352C64.9073 35.654 65.6219 34.9395 66.503 34.9395ZM80.6406 70.9688C80.6406 71.3388 80.3395 71.6406 79.9688 71.6406H45.0312C44.6605 71.6406 44.3594 71.3388 44.3594 70.9688V40.7344H80.6406V70.9688Z" fill="white"/>
<path d="M61.8281 48.125H49.0625V50.8125H61.8281V48.125Z" fill="white"/>
<path d="M76.6094 61.5625H49.0625V64.25H76.6094V61.5625Z" fill="white"/>
<path d="M76.6094 48.125H66.5312V58.2031H76.6094V48.125Z" fill="white"/>
<path d="M60.2359 57.5312H61.8281V54.8438H49.0625V57.5312H58.8922H60.2359Z" fill="white"/>
</g>
<defs>
<filter id="filter0_f_0_1" x="0.210632" y="0" width="115.641" height="108" filterUnits="userSpaceOnUse" color-interpolation-filters="sRGB">
<feFlood flood-opacity="0" result="BackgroundImageFix"/>
<feBlend mode="normal" in="SourceGraphic" in2="BackgroundImageFix" result="shape"/>
<feGaussianBlur stdDeviation="2" result="effect1_foregroundBlur_0_1"/>
</filter>
<clipPath id="clip0_0_1">
<rect width="43" height="43" fill="white" transform="translate(41 32)"/>
</clipPath>
</defs>
</svg>

