<svg width="42" height="43" viewBox="0 0 42 43" fill="none" xmlns="http://www.w3.org/2000/svg">
<g clip-path="url(#clip0_0_826)">
<path d="M36.1193 35.8962L24.2847 9.42433C25.3181 8.43193 25.9673 7.00624 25.9673 5.42443C25.9674 2.43342 23.6472 0 20.7952 0C17.9432 0 15.6231 2.43342 15.6231 5.42443C15.6231 6.9937 16.2624 8.4087 17.2815 9.40005L5.43652 35.8954C5.29241 36.1959 4.9032 37.0218 4.9032 37.6459C4.9032 39.3588 6.59674 40.6374 10.2328 41.6695C13.2557 42.5276 17.0006 43 20.7778 43C24.555 43 28.2998 42.5276 31.3227 41.6695C34.9588 40.6374 36.6524 39.3588 36.6524 37.6459C36.6523 37.4887 36.6522 37.0123 36.1193 35.8962ZM15.3693 21.8862L24.8958 19.0003L26.7819 23.219L12.8918 27.428L15.3693 21.8862ZM11.016 31.6239L28.21 26.4137L30.0958 30.6319L8.53862 37.165L11.016 31.6239ZM20.7952 10.849C20.9458 10.849 21.0946 10.8407 21.242 10.8274L23.4675 15.8055L17.245 17.6905L20.3145 10.8247C20.473 10.84 20.633 10.849 20.7952 10.849ZM20.7777 39.5151C18.3406 39.5151 16.1897 39.3155 14.3784 39.0228L31.5241 33.8266L33.0805 37.3082C31.6188 38.1378 27.1841 39.5151 20.7777 39.5151Z" fill="#FF5E00"/>
</g>
<defs>
<clipPath id="clip0_0_826">
<rect width="41" height="43" fill="white" transform="translate(0.277679)"/>
</clipPath>
</defs>
</svg>
