<svg width="118" height="100" viewBox="0 0 118 100" fill="none" xmlns="http://www.w3.org/2000/svg">
<path d="M0.210632 25C0.210632 11.1929 11.4035 0 25.2106 0H92.5392C106.346 0 117.539 11.1929 117.539 25V75C117.539 88.8071 106.346 100 92.5393 100H0.210632V25Z" fill="#FF6800"/>
<g clip-path="url(#clip0_0_1)">
<path d="M75.9688 28H41.0312C38.805 28 37 29.805 37 32.0312V66.9688C37 69.195 38.805 71 41.0312 71H75.9688C78.195 71 80 69.195 80 66.9688V32.0312C80 29.805 78.195 28 75.9688 28ZM74.3448 30.9395C75.226 30.9395 75.9405 31.654 75.9405 32.5352C75.9405 33.4163 75.226 34.1309 74.3448 34.1309C73.4637 34.1309 72.7491 33.4163 72.7491 32.5352C72.7491 31.654 73.4637 30.9395 74.3448 30.9395ZM68.4239 30.9395C69.3051 30.9395 70.0196 31.654 70.0196 32.5352C70.0196 33.4163 69.3051 34.1309 68.4239 34.1309C67.5428 34.1309 66.8282 33.4163 66.8282 32.5352C66.8282 31.654 67.5428 30.9395 68.4239 30.9395ZM62.503 30.9395C63.3842 30.9395 64.0987 31.654 64.0987 32.5352C64.0987 33.4163 63.3842 34.1309 62.503 34.1309C61.6219 34.1309 60.9073 33.4163 60.9073 32.5352C60.9073 31.654 61.6219 30.9395 62.503 30.9395ZM76.6406 66.9688C76.6406 67.3388 76.3395 67.6406 75.9688 67.6406H41.0312C40.6605 67.6406 40.3594 67.3388 40.3594 66.9688V36.7344H76.6406V66.9688Z" fill="white"/>
<path d="M57.8281 44.125H45.0625V46.8125H57.8281V44.125Z" fill="white"/>
<path d="M72.6094 57.5625H45.0625V60.25H72.6094V57.5625Z" fill="white"/>
<path d="M72.6094 44.125H62.5312V54.2031H72.6094V44.125Z" fill="white"/>
<path d="M56.2359 53.5312H57.8281V50.8438H45.0625V53.5312H54.8922H56.2359Z" fill="white"/>
</g>
<defs>
<clipPath id="clip0_0_1">
<rect width="43" height="43" fill="white" transform="translate(37 28)"/>
</clipPath>
</defs>
</svg>

