<svg width="50" height="49" viewBox="0 0 50 49" fill="none" xmlns="http://www.w3.org/2000/svg">
<path d="M45.2345 40.7622C45.2345 41.9981 44.2631 42.9999 43.065 42.9999C41.8668 42.9999 40.8954 41.9981 40.8954 40.7622C40.8954 40.7481 40.8992 40.7352 40.8994 40.7211H40.8859C40.8864 40.6695 40.8933 40.6196 40.8933 40.5678C40.8933 36.9146 39.4923 33.6062 37.226 31.178L37.2391 31.1644C36.853 30.7746 36.6119 30.2325 36.6119 29.6311C36.6119 28.4449 37.5441 27.4835 38.694 27.4835C39.2771 27.4835 39.8027 27.7321 40.1807 28.1305L40.1846 28.1264C43.3046 31.3529 45.2344 35.8043 45.2344 40.7213H45.2305C45.2307 40.7352 45.2345 40.7481 45.2345 40.7622ZM27.9733 27.0803V27.0859C27.9626 27.0858 27.9523 27.0842 27.9415 27.0842C20.7885 27.0842 14.9899 33.121 14.9899 40.5678C14.9899 40.6043 14.9929 40.6399 14.9951 40.676C14.9962 40.7052 15.0036 40.7326 15.0036 40.7622C15.0036 41.9981 14.0322 43 12.834 43C11.6357 43 10.6644 41.9981 10.6644 40.7622C10.6644 40.7482 10.6681 40.7352 10.6683 40.7212H10.6485C10.6485 33.4802 14.8393 27.2605 20.8494 24.4661C18.3484 22.3496 16.752 19.138 16.752 15.5409C16.752 9.16692 21.7618 4 27.9415 4C34.1213 4 39.1311 9.16687 39.1311 15.5408C39.1311 21.9036 34.1383 27.0624 27.9733 27.0803ZM27.9415 8.18201C24.0089 8.18201 20.821 11.4701 20.821 15.5264C20.821 19.5824 24.0089 22.8705 27.9415 22.8705C31.8741 22.8705 35.0621 19.5824 35.0621 15.5264C35.0621 11.4701 31.8741 8.18201 27.9415 8.18201ZM14.7176 10.213C12.3398 10.8895 10.5939 13.1001 10.5939 15.7298C10.5939 17.9326 11.819 19.8415 13.6143 20.8007C14.341 21.189 15.047 21.9249 15.1627 23.2068C15.263 24.3182 14.9434 25.9866 13.5179 26.392C8.75126 27.7473 5.23307 32.1065 5.06063 37.3355C5.07122 37.4197 5.08555 37.5028 5.08555 37.59C5.08555 38.6856 4.22458 39.5737 3.16226 39.5737C2.10014 39.5737 1.23907 38.6856 1.23907 37.59C1.23907 37.5707 1.24415 37.5528 1.24467 37.5335L1.2345 37.5334C1.2345 30.8756 5.06654 25.5774 10.4521 23.2827C8.22321 21.5259 6.78303 18.7872 6.78303 15.7009C6.78303 11.8203 9.0532 8.48475 12.3179 6.97316C13.8447 6.26613 14.9569 7.11038 15.226 8.19664C15.5486 9.49821 14.7176 10.213 14.7176 10.213Z" fill="#FF5E00"/>
</svg>


