<svg width="117" height="109" viewBox="0 0 117 109" fill="none" xmlns="http://www.w3.org/2000/svg">
<g filter="url(#filter0_f_0_1)">
<path d="M4.8199 29.1622C4.8199 15.3551 16.0128 4.16223 29.8199 4.16223H87.4608C101.268 4.16223 112.461 15.3551 112.461 29.1622V79.1622C112.461 92.9694 101.268 104.162 87.4608 104.162H4.8199V29.1622Z" fill="black" fill-opacity="0.5"/>
</g>
<path d="M4.8199 29.1622C4.8199 15.3551 16.0128 4.16223 29.8199 4.16223H87.4608C101.268 4.16223 112.461 15.3551 112.461 29.1622V79.1622C112.461 92.9693 101.268 104.162 87.4608 104.162H4.8199V29.1622Z" fill="#BF6DFF"/>
<g clip-path="url(#clip0_0_1)">
<path d="M75.1222 70.8962L62.3834 44.4243C63.4957 43.4319 64.1945 42.0062 64.1945 40.4244C64.1946 37.4334 61.6971 35 58.6272 35C55.5573 35 53.0599 37.4334 53.0599 40.4244C53.0599 41.9937 53.748 43.4087 54.845 44.4001L42.095 70.8954C41.9399 71.1959 41.5209 72.0218 41.5209 72.6459C41.5209 74.3588 43.3439 75.6374 47.2578 76.6695C50.5117 77.5276 54.5427 78 58.6085 78C62.6743 78 66.7053 77.5276 69.9592 76.6695C73.8731 75.6374 75.696 74.3588 75.696 72.6459C75.6959 72.4887 75.6958 72.0123 75.1222 70.8962ZM52.7867 56.8862L63.0411 54.0003L65.0713 58.219L50.1199 62.428L52.7867 56.8862ZM48.1008 66.6239L66.6086 61.4137L68.6385 65.6319L45.4341 72.165L48.1008 66.6239ZM58.6272 45.849C58.7893 45.849 58.9495 45.8407 59.1081 45.8274L61.5037 50.8055L54.8058 52.6905L58.1098 45.8247C58.2804 45.84 58.4526 45.849 58.6272 45.849ZM58.6084 74.5151C55.9851 74.5151 53.6698 74.3155 51.7201 74.0228L70.1759 68.8266L71.8513 72.3082C70.2779 73.1378 65.5043 74.5151 58.6084 74.5151Z" fill="white"/>
</g>
<defs>
<filter id="filter0_f_0_1" x="0.819901" y="0.162231" width="115.641" height="108" filterUnits="userSpaceOnUse" color-interpolation-filters="sRGB">
<feFlood flood-opacity="0" result="BackgroundImageFix"/>
<feBlend mode="normal" in="SourceGraphic" in2="BackgroundImageFix" result="shape"/>
<feGaussianBlur stdDeviation="2" result="effect1_foregroundBlur_0_1"/>
</filter>
<clipPath id="clip0_0_1">
<rect width="44.1328" height="43" fill="white" transform="translate(36.542 35)"/>
</clipPath>
</defs>
</svg>

