<svg width="21" height="24" viewBox="0 0 21 24" fill="none" xmlns="http://www.w3.org/2000/svg">
<path d="M17.7019 8.71298C17.6527 8.57594 17.5695 8.45881 17.4626 8.3764C17.3557 8.29399 17.2301 8.25 17.1016 8.25H4.1059C3.97739 8.25 3.85176 8.29399 3.7449 8.3764C3.63804 8.45881 3.55476 8.57595 3.50558 8.713C3.4564 8.85004 3.44353 9.00084 3.4686 9.14633C3.49368 9.29182 3.55557 9.42546 3.64645 9.53034L10.1443 17.0303C10.2046 17.1 10.2763 17.1552 10.3551 17.1929C10.4339 17.2306 10.5184 17.25 10.6037 17.25C10.6891 17.25 10.7736 17.2306 10.8524 17.1929C10.9312 17.1552 11.0029 17.1 11.0632 17.0303L17.561 9.53034C17.6519 9.42545 17.7138 9.29181 17.7389 9.14632C17.764 9.00084 17.7511 8.85003 17.7019 8.71298Z" fill="#B9B9B9"/>
</svg>
