<svg width="48" height="45" viewBox="0 0 48 45" fill="none" xmlns="http://www.w3.org/2000/svg">
<g clip-path="url(#clip0_0_845)">
<path d="M11.1985 38.1959L19.1504 28.9637L22.7879 33.4058L15.7769 41.9422C13.0918 45.2088 8.12334 41.7664 11.1985 38.1959ZM20.4853 17.1717C21.2426 14.806 20.8946 12.7845 18.0489 9.78157L11.0953 1.77254C10.1084 0.662921 7.78292 2.29256 8.75444 3.63655L14.3158 10.1954C15.3676 11.4185 13.4131 13.0372 12.3269 11.7774L6.57426 4.9952C5.5033 3.81966 3.2887 5.37239 4.40939 6.71639C6.03113 8.58406 8.54025 11.6346 10.162 13.5023C11.2865 14.5972 9.57679 16.2196 8.46757 14.8536L2.75704 8.11531C1.9194 7.24373 0.550093 7.78572 0.18673 8.80379C-0.203406 9.89144 0.756636 10.6861 1.41069 11.4918L7.78292 19.3726C9.76038 21.5662 11.9712 22.8663 14.5415 22.1302C14.9354 22.0167 15.4174 21.786 15.9337 21.482L33.0538 42.6417C33.9756 43.7806 35.7542 43.9014 36.9093 42.9823L37.1732 42.7735C38.4737 41.7371 38.684 39.8438 37.571 38.6207L19.4411 18.6768C19.969 18.1129 20.3553 17.5782 20.4853 17.1717ZM25.3314 21.786L28.1504 18.512C24.5244 9.90608 37.9611 -1.56364 44.4749 3.7098C52.3885 10.1221 40.6271 25.5763 32.3615 21.7567L29.0224 25.818L25.3314 21.786Z" fill="#FF5E00"/>
</g>
<defs>
<clipPath id="clip0_0_845">
<rect width="47" height="45" fill="white" transform="translate(0.0947266)"/>
</clipPath>
</defs>
</svg>
